
<svg xmlns="http://www.w3.org/2000/svg" data-name="Layer 1" viewBox="0 0 512 512" x="0px" y="0px"><title>Price</title><path d="M187.673,308.087,110.1,448.5l98.461,40.431a15.875,15.875,0,0,0,20.694-8.647L286.7,340.4l-55.481,13.989L209.386,450.8a7,7,0,0,1-13.655-3.092L218.512,347.1a7,7,0,0,1,5.115-5.241l69.685-17.571,7.81-19.019-75.817-14.757A35.2,35.2,0,0,0,187.673,308.087Z"/><path d="M174,241.985a88.213,88.213,0,1,0-88.212-88.213A88.312,88.312,0,0,0,174,241.985Zm0-81.793a31.655,31.655,0,0,1-7-62.526V89.772a7,7,0,1,1,14,0v7.894a31.705,31.705,0,0,1,24.657,30.868,7,7,0,0,1-14,0A17.657,17.657,0,1,0,174,146.192a31.655,31.655,0,0,1,6,62.737v8.843a7,7,0,0,1-14,0V208.48a31.712,31.712,0,0,1-23.657-30.631,7,7,0,0,1,14,0A17.657,17.657,0,1,0,174,160.192Z"/><path d="M174,255.985a101.782,101.782,0,0,1-33.153-5.523,61.19,61.19,0,0,0-23.833,28.5l-60.567,147.5,40.619,16.679,78.353-141.827a49.154,49.154,0,0,1,52.56-24.546l78.566,15.292,31.195-75.97-67.554-27.74A102.387,102.387,0,0,1,174,255.985Z"/><path d="M440.4,21.883,372.848,57.605a155.59,155.59,0,0,0-71.062,78.3l-17.672,43.037,29.34,12.047,17.672-43.037a123.815,123.815,0,0,1,56.549-62.3l67.553-35.723Z"/></svg>