<svg xmlns="http://www.w3.org/2000/svg" version="1.1" viewBox="-5.0 -10.0 110.0 110.0">
 <path d="m43 51.426c0.67578 0 1.2188 0.54688 1.2188 1.2188 0 0.67578-0.54688 1.2188-1.2188 1.2188l-30.141 0.003907c-5.0234 0-9.1328-4.1055-9.1328-9.1289l0.003907-31.879c0-5.0234 4.1055-9.1289 9.1328-9.1289h72.074c5.0234 0 9.1289 4.1055 9.1289 9.1289v31.875c0 1.5039-0.37109 2.957-1.0742 4.2734-0.31641 0.59375-1.0508 0.81641-1.6445 0.5-0.59375-0.31641-0.81641-1.0508-0.5-1.6445 0.50781-0.95312 0.77734-2.0234 0.77734-3.1328v-31.871c0-3.6758-3.0117-6.6914-6.6914-6.6914l-72.074 0.003906c-3.6758 0-6.6914 3.0117-6.6914 6.6914v31.875c0 3.6758 3.0117 6.6914 6.6914 6.6914zm30.27 2.0977-10.727 30.25c-0.22266 0.63281 0.10938 1.3281 0.74219 1.5547 0.63281 0.22266 1.3281-0.10938 1.5547-0.74219l10.73-30.254c0.22266-0.63281-0.10937-1.3281-0.74219-1.5547-0.63672-0.22266-1.3359 0.11328-1.5586 0.74609zm-13.781 1.3555c3.6602 0 6.6289 2.9688 6.6289 6.6289 0 3.6602-2.9688 6.6289-6.6289 6.6289-3.6602 0-6.6289-2.9688-6.6289-6.6289 0-3.6602 2.9688-6.6289 6.6289-6.6289zm2.9609 3.668c1.6367 1.6367 1.6367 4.2852 0 5.9219-2.6328 2.6328-7.1484 0.75781-7.1484-2.9609s4.5156-5.5938 7.1484-2.9609zm16.172 11.426c3.6602 0 6.6289 2.9688 6.6289 6.6289 0 3.6602-2.9688 6.6289-6.6289 6.6289s-6.6289-2.9688-6.6289-6.6289c0-3.6602 2.9688-6.6289 6.6289-6.6289zm2.9609 3.668c1.6367 1.6367 1.6367 4.2852 0 5.9219-2.6328 2.6328-7.1484 0.75781-7.1484-2.9609s4.5156-5.5898 7.1484-2.9609zm-12.527-31.801c-15.031 0-27.215 12.184-27.215 27.215s12.184 27.215 27.215 27.215 27.215-12.184 27.215-27.215-12.184-27.215-27.215-27.215zm17.52 9.6953c-9.6758-9.6758-25.363-9.6758-35.039 0-9.6758 9.6758-9.6758 25.363 0 35.035 9.6758 9.6758 25.363 9.6758 35.039 0 9.6758-9.6719 9.6719-25.359 0-35.035zm-40.945-21.133h-0.89453l4.1641 5.7852 4.1641-5.7852h-0.89453c-0.67578 0-1.2188-0.54688-1.2188-1.2188v-7.8672h-4.0977v7.8672c-0.003906 0.67188-0.54687 1.2188-1.2227 1.2188zm-2.4961-2.0039c-1.0078 0.72656-1.293 2.1484-0.52344 3.2148l4.4219 6.1445c0.92188 1.2812 2.8125 1.2812 3.7344 0l4.4219-6.1445c1.1016-1.5312 0-3.5977-1.8008-3.6484v-6.7812c0-1.2695-1.0391-2.3047-2.3047-2.3047h-4.3672c-1.2695 0-2.3047 1.0391-2.3047 2.3047v6.7812c-0.48438 0.015625-0.91797 0.17578-1.2773 0.43359zm-18.062-6.1016c-3.5898 0-6.5 2.9102-6.5 6.5s2.9102 6.5 6.5 6.5c3.5898 0 6.5-2.9102 6.5-6.5s-2.9102-6.5-6.5-6.5zm2.8711 3.6289c-2.5508-2.5508-6.9336-0.73438-6.9336 2.8711 0 3.6094 4.3828 5.4219 6.9336 2.8711 1.5859-1.582 1.5859-4.1562 0-5.7422zm44.785-3.6289c-3.5898 0-6.5 2.9102-6.5 6.5s2.9102 6.5 6.5 6.5c3.5898 0 6.5-2.9102 6.5-6.5s-2.9102-6.5-6.5-6.5zm2.8711 3.6289c-2.5508-2.5508-6.9336-0.73438-6.9336 2.8711 0 3.6094 4.3828 5.4219 6.9336 2.8711 1.5859-1.582 1.5859-4.1562 0-5.7422zm-26.699-11.699c-8.0469 0-14.57 6.5234-14.57 14.57s6.5234 14.57 14.57 14.57c8.0469 0 14.57-6.5234 14.57-14.57s-6.5234-14.57-14.57-14.57zm8.5781 5.9961c-4.7383-4.7383-12.418-4.7383-17.156 0-4.7383 4.7383-4.7383 12.418 0 17.156 4.7383 4.7383 12.418 4.7383 17.156 0 4.7383-4.7383 4.7383-12.422 0-17.156zm-8.2578 24.066h-29.586c-0.52344-3.2383-3.0898-5.8008-6.3242-6.3242v-18.328c3.2383-0.52344 5.8008-3.0898 6.3242-6.3242h58.531c0.52344 3.2383 3.0898 5.8008 6.3242 6.3242v18.328c-1.5039 0.24219-2.8789 0.92578-3.9844 1.9609-0.49219 0.45703-0.51953 1.2266-0.0625 1.7227 0.45703 0.49219 1.2266 0.51953 1.7227 0.0625 0.95703-0.89063 2.2148-1.3984 3.5469-1.3984 0.67578 0 1.2188-0.54688 1.2188-1.2188v-20.582c0-0.67578-0.54688-1.2188-1.2188-1.2188-2.8633 0-5.2031-2.3398-5.2031-5.2031 0-0.67578-0.54687-1.2188-1.2188-1.2188l-60.777-0.003906c-0.67578 0-1.2188 0.54687-1.2188 1.2188 0 2.8633-2.3398 5.2031-5.2031 5.2031-0.67578 0-1.2188 0.54688-1.2188 1.2188v20.574c0 0.67578 0.54688 1.2188 1.2188 1.2188 2.8633 0 5.2031 2.3398 5.2031 5.2031 0 0.67578 0.54688 1.2188 1.2188 1.2188l30.707 0.007813c0.67578 0 1.2188-0.54688 1.2188-1.2188 0.003906-0.67578-0.54297-1.2227-1.2188-1.2227z" fill-rule="evenodd"/>
</svg>