<svg xmlns="http://www.w3.org/2000/svg" version="1.1" viewBox="-5.0 -10.0 110.0 110.0">
 <path d="m19.324 17.941v-5.8828c0-4.582 3.7422-8.3242 8.3242-8.3242h20.289c4.582 0 8.3242 3.7422 8.3242 8.3242v5.8828h5.8398c5.3672 0 9.7539 4.3867 9.7539 9.7539v10.328c0 1.3906-1.9727 1.6836-2.3867 0.36328-0.41406 0.23828-0.84766 0.47656-1.293 0.71484-0.59375 0.3125-1.332 0.085938-1.6445-0.51172-0.3125-0.59375-0.085938-1.332 0.51172-1.6445l2.3711-1.3711v-7.8789c0-4.0195-3.293-7.3125-7.3125-7.3125l-48.617-0.003906c-4.0195 0-7.3125 3.293-7.3125 7.3125v7.8828c6.6211 4.2031 15.648 6.4648 24 7.2539 0.67969-2.2578 2.7734-3.8672 5.1953-3.8672h4.8555c2.4219 0 4.5156 1.6094 5.1953 3.8672 5.2383-0.49609 10.418-1.5195 15.223-3.1562 0.63672-0.21484 1.3281 0.125 1.543 0.76172 0.21484 0.63672-0.125 1.3281-0.76172 1.543-5.0352 1.7148-10.371 2.7695-15.848 3.2812-0.42578 2.5859-2.6836 4.5391-5.3516 4.5391h-4.8555c-2.6641 0-4.9219-1.9531-5.3516-4.5391-8.3047-0.77734-17.039-2.9297-23.844-6.8438v22.648c0 4.0195 3.293 7.3125 7.3125 7.3125h34.41c0.67578 0 1.2188 0.54688 1.2188 1.2188 0 0.67578-0.54688 1.2188-1.2188 1.2188h-34.41c-5.3672 0-9.7539-4.3867-9.7539-9.7539v-33.363c0-5.3672 4.3867-9.7539 9.7539-9.7539zm53.105 47.23v7.2578h-7.2578c-0.67578 0-1.2188 0.54687-1.2188 1.2188 0 0.67578 0.54688 1.2188 1.2188 1.2188h7.2578v7.2578c0 0.67578 0.54687 1.2188 1.2188 1.2188 0.67578 0 1.2188-0.54688 1.2188-1.2188v-7.2539h7.2578c0.67578 0 1.2188-0.54688 1.2188-1.2188 0-0.67578-0.54688-1.2188-1.2188-1.2188h-7.2578v-7.2578c0-0.67578-0.54688-1.2188-1.2188-1.2188-0.67188-0.003906-1.2188 0.54297-1.2188 1.2148zm7.6484-10.656c-7.3047-2.4531-15.324-0.50781-20.699 4.8672-7.8789 7.8789-7.8789 20.656 0 28.535 7.8789 7.8789 20.656 7.8789 28.535 0 5.332-5.332 7.3086-13.277 4.9023-20.582-1.9844-6.043-6.7422-10.809-12.738-12.82zm6.1406 0.33594c-1.6484-1.1016-3.4805-2.0156-5.3945-2.6523v-2.0469c1.8594 0 3.3281-1.4766 3.3281-3.2969v-1.9727c0-1.8164-1.4805-3.2969-3.2969-3.2969l-14.414 0.007812c-1.8164 0-3.2969 1.4805-3.2969 3.2969v1.9727c0 1.8203 1.4688 3.2969 3.3281 3.2969v2.0391c-3.3594 1.1211-6.3672 3.0117-8.8203 5.4648-8.832 8.832-8.832 23.152 0 31.988 8.832 8.832 23.152 8.832 31.988 0 7.6406-7.6406 8.8086-19.613 2.8086-28.562l1.6016-1.6016c0.85938-0.85938 1.2852-1.9883 1.2852-3.1172 0-3.9414-4.7695-5.8633-7.5195-3.1172zm3.3242 0.12109c0.38281-0.38281 0.88672-0.57031 1.3906-0.57031 1.7734 0 2.6055 2.1406 1.3906 3.3555l-1.3555 1.3555c-0.84766-1.0078-1.7734-1.9336-2.7812-2.7812zm-20.629-4.8203v1.375c3.1094-0.66406 6.3555-0.66406 9.4688 0.003906v-1.3789zm11.945-6.1211h-14.418c-0.46875 0-0.85547 0.38672-0.85547 0.85547v1.9727c0 0.46875 0.38672 0.85547 0.85547 0.85547h14.418c0.46875 0 0.85547-0.38672 0.85547-0.85547v-1.9727c0-0.46484-0.39062-0.85547-0.85547-0.85547zm-59.098-31.977v5.8828h32.059v-5.8828c0-3.2344-2.6484-5.8828-5.8828-5.8828h-20.289c-3.2344 0-5.8867 2.6484-5.8867 5.8828zm18.457 29.344h-4.8555c-2.6133 0-4 3.1914-2.1055 5.0859 0.53906 0.53906 1.2852 0.87891 2.1055 0.87891h4.8555c2.6133 0 4-3.1914 2.1055-5.0859-0.54297-0.54297-1.2852-0.87891-2.1055-0.87891z" fill-rule="evenodd"/>
</svg>