<svg xmlns="http://www.w3.org/2000/svg" version="1.1" viewBox="-5.0 -10.0 110.0 110.0">
 <path d="m43.121 51.426c0.67578 0 1.2188 0.54688 1.2188 1.2188 0 0.67578-0.54688 1.2188-1.2188 1.2188l-30.262 0.003907c-5.0234 0-9.1289-4.1055-9.1289-9.1289v-31.879c0-5.0234 4.1055-9.1289 9.1289-9.1289h72.074c5.0234 0 9.1328 4.1055 9.1328 9.1289v31.875c0 1.5273-0.40234 3.0625-1.1328 4.3828-0.32422 0.58984-1.0625 0.80469-1.6523 0.48047-0.58984-0.32422-0.80469-1.0625-0.48047-1.6523 0.55078-1 0.82422-2.0508 0.82422-3.2109v-31.875c0-3.6758-3.0117-6.6914-6.6914-6.6914l-72.074 0.003906c-3.6758 0-6.6914 3.0117-6.6914 6.6914v31.875c0 3.6758 3.0117 6.6914 6.6914 6.6914zm30.148 2.0977-10.73 30.25c-0.22266 0.63281 0.10938 1.3281 0.74219 1.5547 0.63281 0.22266 1.3281-0.10938 1.5547-0.74219l10.73-30.254c0.22266-0.63281-0.10938-1.3281-0.74219-1.5547-0.63281-0.22266-1.332 0.11328-1.5547 0.74609zm-13.781 1.3555c3.6602 0 6.6289 2.9688 6.6289 6.6289 0 3.6602-2.9688 6.6289-6.6289 6.6289-3.6602 0-6.6289-2.9688-6.6289-6.6289 0-3.6602 2.9688-6.6289 6.6289-6.6289zm2.9609 3.668c1.6367 1.6367 1.6367 4.2852 0 5.9219-2.6328 2.6328-7.1484 0.75781-7.1484-2.9609s4.5156-5.5938 7.1484-2.9609zm16.172 11.426c3.6602 0 6.6289 2.9688 6.6289 6.6289 0 3.6602-2.9688 6.6289-6.6289 6.6289s-6.6289-2.9688-6.6289-6.6289c0-3.6602 2.9688-6.6289 6.6289-6.6289zm2.9609 3.668c1.6367 1.6367 1.6367 4.2852 0 5.9219-2.6328 2.6328-7.1484 0.75781-7.1484-2.9609s4.5156-5.5898 7.1484-2.9609zm-12.527-31.801c-15.031 0-27.215 12.184-27.215 27.215s12.184 27.215 27.215 27.215 27.215-12.184 27.215-27.215-12.184-27.215-27.215-27.215zm17.52 9.6953c-9.6758-9.6758-25.363-9.6758-35.035 0-9.6758 9.6758-9.6758 25.363 0 35.035 9.6758 9.6758 25.363 9.6758 35.035 0 9.6719-9.6719 9.6719-25.359 0-35.035zm-41.84-24.344h0.89453c0.67578 0 1.2188 0.54688 1.2188 1.2188v7.8672h4.0977v-7.8672c0-0.67578 0.54688-1.2188 1.2188-1.2188h0.89453l-4.1641-5.7852zm-0.32422 2.4414v6.7812c0 1.2695 1.0352 2.3047 2.3047 2.3047h4.3672c1.2656 0 2.3047-1.0352 2.3047-2.3047v-6.7812c1.7969-0.050781 2.8984-2.1172 1.8008-3.6484l-4.4219-6.1445c-0.92188-1.2812-2.8125-1.2812-3.7344 0l-4.4219 6.1445c-1.1016 1.5312 0 3.5938 1.8008 3.6484zm-19.34-7.3359c-3.5898 0-6.5 2.9102-6.5 6.5s2.9102 6.5 6.5 6.5c3.5898 0 6.5-2.9102 6.5-6.5s-2.9102-6.5-6.5-6.5zm2.8711 3.6289c-2.5508-2.5508-6.9336-0.73438-6.9336 2.8711 0 3.6094 4.3828 5.4219 6.9336 2.8711 1.5859-1.582 1.5859-4.1562 0-5.7422zm44.785-3.6289c-3.5898 0-6.5 2.9102-6.5 6.5s2.9102 6.5 6.5 6.5c3.5898 0 6.5-2.9102 6.5-6.5s-2.9102-6.5-6.5-6.5zm2.8711 3.6289c-2.5508-2.5508-6.9336-0.73438-6.9336 2.8711 0 3.6094 4.3828 5.4219 6.9336 2.8711 1.5859-1.582 1.5859-4.1562 0-5.7422zm-26.699-11.699c-8.0469 0-14.57 6.5234-14.57 14.57s6.5234 14.57 14.57 14.57c8.0469 0 14.57-6.5234 14.57-14.57s-6.5234-14.57-14.57-14.57zm8.5781 5.9961c-4.7383-4.7383-12.418-4.7383-17.156 0-4.7383 4.7383-4.7383 12.418 0 17.156 4.7383 4.7383 12.418 4.7383 17.156 0 4.7383-4.7383 4.7383-12.422 0-17.156zm-8.0977 24.066h-29.746c-0.52344-3.2383-3.0898-5.8008-6.3242-6.3242v-18.328c3.2383-0.52344 5.8008-3.0898 6.3242-6.3242h58.531c0.52344 3.2383 3.0898 5.8008 6.3242 6.3242v18.328c-1.5469 0.25-2.957 0.96875-4.0781 2.0508-0.48438 0.46484-0.5 1.2344-0.03125 1.7227 0.46484 0.48438 1.2344 0.5 1.7188 0.03125 0.96484-0.92969 2.2422-1.4609 3.6133-1.4609 0.67578 0 1.2188-0.54688 1.2188-1.2188v-20.578c0-0.67578-0.54688-1.2188-1.2188-1.2188-2.8633 0-5.2031-2.3398-5.2031-5.2031 0-0.67578-0.54687-1.2188-1.2188-1.2188l-60.777-0.003906c-0.67578 0-1.2188 0.54687-1.2188 1.2188 0 2.8633-2.3398 5.2031-5.2031 5.2031-0.67578 0-1.2188 0.54688-1.2188 1.2188v20.574c0 0.67578 0.54688 1.2188 1.2188 1.2188 2.8633 0 5.2031 2.3398 5.2031 5.2031 0 0.67578 0.54688 1.2188 1.2188 1.2188h30.867c0.67578 0 1.2188-0.54688 1.2188-1.2188 0-0.66797-0.54688-1.2148-1.2188-1.2148z" fill-rule="evenodd"/>
</svg>