<svg xmlns="http://www.w3.org/2000/svg" version="1.1" viewBox="-5.0 -10.0 110.0 110.0">
 <path d="m74.625 53.191h-13.195c-1.4414 0-2.7227-0.59766-3.6523-1.6992l-6.4648-7.6641c-0.47266-0.55859-1.0625-0.83203-1.793-0.83203h-24.125c-0.74219 0-1.332 0.27344-1.8047 0.83984l-7.3164 8.7891v37.059l4.6172 3.6445c0.44531 0.35156 0.87891 0.5 1.4531 0.5h43.051c0.67578 0 1.2188-0.22656 1.6875-0.71094l9.2305-9.5586c0.44922-0.46875 0.65625-0.98047 0.65625-1.6328v-26.391c0-1.293-1.0547-2.3438-2.3438-2.3438zm6.0352-31.324c0.41016-0.53125 1.1758-0.62891 1.707-0.21875 0.53125 0.41016 0.62891 1.1758 0.21875 1.707l-3.1328 4.0469 4.2227 3.1797c0.53125 0.40234 0.64062 1.1562 0.25 1.6914l-3.8672 5.6562c-0.37891 0.55469-1.1367 0.69922-1.6914 0.32031-0.55469-0.37891-0.69922-1.1367-0.32031-1.6914l3.2344-4.7305-4.2773-3.2227c-0.53906-0.40625-0.64062-1.1797-0.23047-1.7148zm-0.31641 24.223c-3.7227 0-7.0938-1.5078-9.5352-3.9492-3.7344-3.7344-4.9219-9.2812-3.1367-14.164 0.34766-0.95312 0.66406-1.5156 1.1484-2.3711l10.727-18.977c0.35156-0.61719 1.2422-0.61719 1.5938 0l10.426 18.449c0.78516 1.3867 1.2617 2.1836 1.7266 3.7891 2.4727 8.5508-3.9141 17.223-12.949 17.223zm11.258-2.2266c-6.2188 6.2188-16.301 6.2188-22.52 0-4.5625-4.5625-5.9023-11.41-3.4727-17.309 0.33203-0.80859 0.59766-1.2617 1.0234-2.0117l10.797-19.105c1.2852-2.2734 4.5391-2.2734 5.8242 0l11.254 19.91c0.50781 0.80859 1.1055 2.6094 1.3359 3.6055 1.2852 5.4648-0.39844 11.07-4.2422 14.91zm-28 17.645c-0.67578 0-1.2188-0.54687-1.2188-1.2188 0-0.67578 0.54688-1.2188 1.2188-1.2188h7.4062c0.67578 0 1.2188 0.54688 1.2188 1.2188 0 0.67578-0.54687 1.2188-1.2188 1.2188zm0 21.887c-0.67578 0-1.2188-0.54688-1.2188-1.2188 0-0.67578 0.54688-1.2188 1.2188-1.2188h7.4062c0.67578 0 1.2188 0.54688 1.2188 1.2188s-0.54687 1.2188-1.2188 1.2188zm0-7.2969c-0.67578 0-1.2188-0.54688-1.2188-1.2188 0-0.67578 0.54688-1.2188 1.2188-1.2188h7.4062c0.67578 0 1.2188 0.54688 1.2188 1.2188 0 0.67578-0.54687 1.2188-1.2188 1.2188zm0-7.293c-0.67578 0-1.2188-0.54688-1.2188-1.2188 0-0.67578 0.54688-1.2188 1.2188-1.2188h7.4062c0.67578 0 1.2188 0.54687 1.2188 1.2188 0 0.67578-0.54687 1.2188-1.2188 1.2188zm-35.426-11.93h21.84c3.9453 0 7.168 3.2227 7.168 7.168v14.379c0 3.9453-3.2227 7.168-7.168 7.168h-21.84c-3.9453 0-7.168-3.2227-7.168-7.168v-14.379c0-3.9453 3.2227-7.168 7.168-7.168zm21.84 2.4414c2.5977 0 4.7266 2.1289 4.7266 4.7266v14.379c0 2.5977-2.1289 4.7266-4.7266 4.7266h-21.84c-2.5977 0-4.7266-2.1289-4.7266-4.7266v-14.379c0-2.5977 2.1289-4.7266 4.7266-4.7266zm-27.152-34.91h29.18c2.0156 0 3.6602 1.6445 3.6602 3.6602v4.6367c0 2.0156-1.6445 3.6602-3.6602 3.6602h-4.75v4.1875h2.2227c1.4414 0 2.7227 0.59766 3.6523 1.6992l6.4648 7.6641c0.47266 0.55859 1.0625 0.83203 1.793 0.83203h13.195c2.2578 0 4.1836 1.582 4.668 3.7344h4.7109c3.2891 0 5.9766 2.6875 5.9766 5.9766v14.41c0 3.2891-2.6875 5.9766-5.9766 5.9766h-4.5938c0 1.0508 0.066406 1.8594-0.33984 2.8672-0.22656 0.55859-0.5625 1.0703-1.0039 1.5273l-9.2305 9.5586c-0.92578 0.96094-2.1133 1.4648-3.4414 1.4648h-43.051c-1.0938 0-2.0938-0.35156-2.9609-1.0312l-4.7461-3.7422h-5.7812c-2.8203 0-5.125-2.3047-5.125-5.125l0.003907-30.266c0-2.8203 2.3047-5.125 5.125-5.125h5.6289l7.2344-8.6914c0.92969-1.1172 2.2266-1.7266 3.6719-1.7266h2.2227v-4.1875h-4.75c-2.0156 0-3.6602-1.6445-3.6602-3.6602v-4.6367c0-2.0156 1.6445-3.6641 3.6602-3.6641zm21.988 11.961h-14.797v4.1875h14.797zm7.1914-9.5195h-29.18c-0.66797 0-1.2227 0.55078-1.2227 1.2227v4.6367c0 0.67188 0.55078 1.2227 1.2227 1.2227h29.18c0.66797 0 1.2227-0.55078 1.2227-1.2227v-4.6367c0-0.67187-0.55078-1.2227-1.2227-1.2227zm27.363 51.559h4.5938c1.9414 0 3.5352-1.5938 3.5352-3.5352l0.003906-14.41c0-1.9414-1.5938-3.5352-3.5352-3.5352h-4.5938zm-65.574-24.992h-4.9766c-1.4766 0-2.6875 1.2109-2.6875 2.6875v30.266c0 1.4766 1.2109 2.6875 2.6875 2.6875h4.9727z" fill-rule="evenodd"/>
</svg>