<svg xmlns="http://www.w3.org/2000/svg" version="1.1" viewBox="-5.0 -10.0 110.0 110.0">
 <path d="m36.113 93.828c0.67578 0 1.2188 0.54688 1.2188 1.2188 0 0.67578-0.54688 1.2188-1.2188 1.2188l-27.441 0.003906c-2.7188 0-4.9414-2.2188-4.9414-4.9414v-6.1992c0-2.2773 1.5664-4.2344 3.7188-4.7852v-70.227c0-3.5156 2.8711-6.3867 6.3867-6.3867h43.809c3.5156 0 6.3867 2.8711 6.3867 6.3867v3.7969h4.0586c2.1445 0 3.8906 1.75 3.8906 3.8906v4.2266h9.6445c4.207 0 7.6367 3.4297 7.6367 7.6367v18.195c0 0.67578-0.54688 1.2188-1.2188 1.2188-0.67578 0-1.2188-0.54688-1.2188-1.2188v-18.195c0-2.8594-2.3359-5.1992-5.1992-5.1992h-9.6445v4.2266c0 2.1445-1.75 3.8906-3.8906 3.8906h-4.0586v11.605c0 0.67578-0.54688 1.2188-1.2188 1.2188-0.67578 0-1.2188-0.54688-1.2188-1.2188v-34.074c0-2.168-1.7773-3.9453-3.9453-3.9453h-43.809c-2.168 0-3.9453 1.7773-3.9453 3.9453v33.461h38.473c0.67578 0 1.2188 0.54688 1.2188 1.2188 0 0.67578-0.54688 1.2188-1.2188 1.2188l-38.477 0.003906v34.172h20.664c0.67578 0 1.2188 0.54688 1.2188 1.2188 0 0.67578-0.54688 1.2188-1.2188 1.2188l-21.883 0.003906c-1.3711 0-2.5 1.1289-2.5 2.5v6.1992c0 1.3711 1.1289 2.5 2.5 2.5zm21.234-16.75h16.09c0.67578 0 1.2188-0.54688 1.2188-1.2188 0-0.67578-0.54688-1.2188-1.2188-1.2188h-16.09c-0.67578 0-1.2188 0.54688-1.2188 1.2188s0.54688 1.2188 1.2188 1.2188zm0 5.7227h16.09c0.67578 0 1.2188-0.54688 1.2188-1.2188 0-0.67578-0.54688-1.2188-1.2188-1.2188h-16.09c-0.67578 0-1.2188 0.54688-1.2188 1.2188s0.54688 1.2188 1.2188 1.2188zm26.508-12.09c-3.1602 0-5.7266 2.5625-5.7266 5.7266 0 3.1602 2.5625 5.7266 5.7266 5.7266 3.1602 0 5.7266-2.5625 5.7266-5.7266s-2.5625-5.7266-5.7266-5.7266zm2.3242 3.4023c-2.0625-2.0625-5.6094-0.59375-5.6094 2.3242s3.5469 4.3867 5.6094 2.3242c1.2852-1.2852 1.2852-3.3633 0-4.6484zm-39.25-3.4023c-3.1602 0-5.7266 2.5625-5.7266 5.7266 0 3.1602 2.5625 5.7266 5.7266 5.7266 3.1602 0 5.7266-2.5625 5.7266-5.7266s-2.5625-5.7266-5.7266-5.7266zm2.3242 3.4023c-2.0625-2.0664-5.6094-0.59375-5.6094 2.3242s3.5469 4.3867 5.6094 2.3242c1.2852-1.2852 1.2852-3.3633 0-4.6484zm-2.1133-10.879h36.508c1.0156 0 2.0039 0.12109 2.9492 0.35156l-3.0469-9.4609c-0.69531-2.1562-2.582-3.5312-4.8516-3.5312h-26.613c-2.2695 0-4.1562 1.375-4.8516 3.5312l-3.0469 9.4609c0.94922-0.23047 1.9375-0.35156 2.9531-0.35156zm43.945 2.4414h1.2461c1.043 0 1.9648-0.55859 2.6016-1.457 0.98438-1.3828 0.89844-2.6641 0.89844-4.2695 0-1.5586-1.0078-3.125-2.5742-3.125h-6.2812l-1.1094-3.4453c-1.0156-3.1523-3.8594-5.2266-7.168-5.2266l-26.613 0.003906c-3.3086 0-6.1523 2.0742-7.168 5.2266l-1.1094 3.4453h-6.2812c-0.78906 0-1.4766 0.41016-1.9492 1.0742-0.74609 1.0508-0.62891 2.1055-0.62891 3.3516 0 2.1641 1.3398 4.4258 3.5 4.4258h1.2461c-3.1719 2.3242-5.1836 6.0508-5.1836 10.18v5.8047c0 3.0156 1.9922 5.6328 4.793 6.5078v3.3828c0 2.7031 2.4297 4.7148 5.1484 4.7148h5.4961c2.7188 0 5.1484-2.0156 5.1484-4.7148v-3.0742h20.582v3.0742c0 2.7031 2.4297 4.7148 5.1484 4.7148h5.4961c2.7188 0 5.1484-2.0156 5.1484-4.7148v-3.3828c2.8008-0.875 4.793-3.4922 4.793-6.5078v-5.8047c0.003906-4.1289-2.0078-7.8555-5.1797-10.184zm-2.0508 22.805h-10.914v3.0742c0 1.332 1.3281 2.2773 2.7109 2.2773h5.4961c1.3789 0 2.7109-0.94531 2.7109-2.2773zm-36.367 0h-10.914v3.0742c0 1.332 1.3281 2.2773 2.7109 2.2773h5.4961c1.3789 0 2.7109-0.94531 2.7109-2.2773zm30.98-22.805h-36.508c-5.5977 0-10.18 4.5859-10.18 10.18v5.8047c0 2.4023 1.9727 4.375 4.375 4.375h48.121c2.4023 0 4.375-1.9727 4.375-4.375v-5.8047c-0.003906-5.5938-4.5859-10.18-10.184-10.18zm-41.902-2.4414 1.2773-3.9688h-5.4961c-0.21094 0-0.23047 2.793 0.30469 3.543 0.1875 0.26172 0.41016 0.42578 0.62109 0.42578l3.293 0.003906zm46.016-3.9688 1.2773 3.9688h3.293c0.21094 0 0.43359-0.16406 0.62109-0.42578 0.49609-0.69922 0.57031-3.543 0.30469-3.543zm-23.73-42.914v13.793h4.0586c0.79688 0 1.4492-0.65625 1.4492-1.4492v-10.891c0-0.79688-0.65625-1.4492-1.4492-1.4492zm-48.797 36.262h9.1445c0.67578 0 1.2188-0.54688 1.2188-1.2188 0-0.67578-0.54688-1.2188-1.2188-1.2188h-9.1445c-0.67578 0-1.2188 0.54688-1.2188 1.2188s0.54688 1.2188 1.2188 1.2188zm0 23.426h9.1445c0.67578 0 1.2188-0.54687 1.2188-1.2188 0-0.67578-0.54688-1.2188-1.2188-1.2188h-9.1445c-0.67578 0-1.2188 0.54688-1.2188 1.2188 0 0.67188 0.54688 1.2188 1.2188 1.2188zm0-11.715h9.1445c0.67578 0 1.2188-0.54688 1.2188-1.2188 0-0.67578-0.54688-1.2188-1.2188-1.2188h-9.1445c-0.67578 0-1.2188 0.54688-1.2188 1.2188s0.54688 1.2188 1.2188 1.2188zm5.4375-53.395c-3.5352 0-6.4258 2.8867-6.4258 6.4258v15.043c0 3.5352 2.8906 6.4258 6.4258 6.4258h30.141c3.5352 0 6.4258-2.8867 6.4258-6.4258l-0.003906-15.047c0-3.5352-2.8867-6.4258-6.4258-6.4258zm30.141 2.4375h-30.141c-2.1875 0-3.9844 1.7969-3.9844 3.9844v15.043c0 2.1875 1.7969 3.9844 3.9844 3.9844h30.141c2.1875 0 3.9844-1.7969 3.9844-3.9844v-15.043c0-2.1875-1.7969-3.9844-3.9844-3.9844z" fill-rule="evenodd"/>
</svg>