<svg xmlns="http://www.w3.org/2000/svg" version="1.1" viewBox="-5.0 -10.0 110.0 110.0">
 <path d="m59.766 7.7617 32.473 32.473c5.375 5.375 5.375 14.16 0 19.535l-32.473 32.469c-5.375 5.375-14.16 5.375-19.535 0l-32.469-32.473c-5.375-5.375-5.375-14.16 0-19.535l32.473-32.469c5.3711-5.375 14.16-5.375 19.531 0zm-13.496 21.695-5.1016 19.98h8.9336c0.87891 0 1.5547 0.94141 1.043 1.8555l-6.2656 12.156c-0.32031 0.61719-1.0781 0.84766-1.7148 0.48047l-1.2344-0.67188 1.7734 6.6094 6.3281-3.8984-1.9219-0.82031c-0.72266-0.30859-0.9375-1.1484-0.53516-1.7969l10.449-18.102h-6.7461c-0.89062 0-1.6016-0.98438-0.99609-1.9258l8.0117-13.871zm-7.8516 20.898c-0.19531 0.77344 0.39062 1.5195 1.1836 1.5195h8.5078l-4.8203 9.3516-2.6836-1.4609c-0.9375-0.51172-2.0312 0.35547-1.7578 1.3828l2.9297 10.926c0.20703 0.77344 1.1133 1.1914 1.8906 0.67578l9.6484-5.9414c0.83594-0.51562 0.74219-1.7695-0.16016-2.1523l-2.8203-1.2031 10.859-18.809c0.46094-0.80469-0.125-1.8242-1.0547-1.8242h-6.7461l8.0664-13.977c0.46484-0.80469-0.125-1.8242-1.0547-1.8242h-15.082c-0.58594 0-1.0742 0.41016-1.1914 0.96094zm14.328-35.574c-1.4961-1.4961-3.9961-1.4961-5.4922 0l-32.473 32.473c-1.5039 1.5-1.5039 3.9922 0 5.4922l32.473 32.473c1.4961 1.4961 3.9961 1.4961 5.4922 0l32.473-32.473c1.5039-1.5 1.5039-3.9922 0-5.4922zm-2.7461-3.5664c-1.6211 0-3.2461 0.61328-4.4727 1.8398l-32.473 32.473c-2.4492 2.4492-2.4492 6.4961 0 8.9453l32.473 32.473c2.4492 2.4492 6.4922 2.4492 8.9453 0l32.473-32.473c2.4492-2.4492 2.4492-6.4961 0-8.9453l-32.473-32.473c-1.2266-1.2266-2.8516-1.8398-4.4727-1.8398zm40.516 30.742-32.477-32.473c-4.4219-4.4219-11.66-4.4219-16.082 0l-32.473 32.473c-4.4219 4.4219-4.4219 11.66 0 16.082l32.473 32.473c4.4219 4.4219 11.66 4.4219 16.082 0l32.473-32.473c4.4219-4.418 4.4219-11.66 0.003906-16.082z" fill-rule="evenodd"/>
</svg>